<svg width="24" height="24" viewBox="0 0 24 24" fill="none" xmlns="http://www.w3.org/2000/svg">
<path d="M18.6067 13.8674C18.3614 13.8675 18.1185 13.8193 17.8919 13.7255C17.6652 13.6317 17.4593 13.4942 17.2858 13.3208C17.1123 13.1474 16.9746 12.9415 16.8807 12.715C16.7867 12.4884 16.7384 12.2455 16.7383 12.0002C16.7382 11.755 16.7864 11.5121 16.8802 11.2854C16.974 11.0588 17.1115 10.8528 17.2849 10.6793C17.4583 10.5058 17.6642 10.3682 17.8908 10.2742C18.1173 10.1803 18.3602 10.1319 18.6055 10.1318C19.1009 10.1317 19.576 10.3283 19.9264 10.6785C20.2768 11.0286 20.4737 11.5037 20.4739 11.999C20.474 12.4944 20.2774 12.9696 19.9272 13.3199C19.5771 13.6703 19.1021 13.8673 18.6067 13.8674Z" fill="#403B43"/>
<path d="M12.1953 13.8672C13.2266 13.8672 14.0625 13.0312 14.0625 12C14.0625 10.9688 13.2266 10.1328 12.1953 10.1328C11.1641 10.1328 10.3281 10.9688 10.3281 12C10.3281 13.0312 11.1641 13.8672 12.1953 13.8672Z" fill="#403B43"/>
<path d="M5.78517 13.8674C6.81639 13.8674 7.65237 13.0315 7.65237 12.0002C7.65237 10.969 6.81639 10.133 5.78517 10.133C4.75394 10.133 3.91797 10.969 3.91797 12.0002C3.91797 13.0315 4.75394 13.8674 5.78517 13.8674Z" fill="#403B43"/>
</svg>
