<svg width="40" height="40" viewBox="0 0 40 40" fill="none" xmlns="http://www.w3.org/2000/svg">
<circle cx="20" cy="20" r="20" fill="#2F9089"/>
<path d="M24 16C24 16.5523 24.4477 17 25 17C25.5523 17 26 16.5523 26 16H24ZM26 20C26 20.5523 26.4477 21 27 21C27.5523 21 28 20.5523 28 20H26ZM28 24C28 23.4477 27.5523 23 27 23C26.4477 23 26 23.4477 26 24H28ZM13 14C13 13.4477 12.5523 13 12 13C11.4477 13 11 13.4477 11 14H13ZM26 16V13H24V16H26ZM26 13C26 11.8954 25.1046 11 24 11V13H26ZM24 11H14V13H24V11ZM14 11C12.3431 11 11 12.3431 11 14H13C13 13.4477 13.4477 13 14 13V11ZM11 14C11 15.6569 12.3431 17 14 17V15C13.4477 15 13 14.5523 13 14H11ZM14 17H26V15H14V17ZM26 17H28C28 15.8954 27.1046 15 26 15V17ZM26 17V20H28V17H26ZM26 24V27H28V24H26ZM26 27V29C27.1046 29 28 28.1046 28 27H26ZM26 27H14V29H26V27ZM14 27C13.4477 27 13 26.5523 13 26H11C11 27.6569 12.3431 29 14 29V27ZM13 26V14H11V26H13Z" fill="white"/>
<path d="M28 20V24H24C22.8954 24 22 23.1046 22 22C22 20.8954 22.8954 20 24 20H28" stroke="white" stroke-width="2" stroke-linecap="round" stroke-linejoin="round"/>
</svg>
