<svg width="102" height="102" viewBox="0 0 102 102" fill="none" xmlns="http://www.w3.org/2000/svg">
<circle cx="51" cy="51" r="51" fill="#1A504C"/>
<path d="M54.75 47.25H62.25V49.75H54.75V47.25ZM47.25 57.25H44.75V54.75H42.25V57.25H39.75V59.75H42.25V62.25H44.75V59.75H47.25V57.25ZM39.75 42.25H47.25V44.75H39.75V42.25ZM54.75 52.25H62.25V54.75H54.75V52.25Z" fill="white"/>
<path d="M64.75 34.75H37.25C36.5872 34.7507 35.9517 35.0143 35.483 35.483C35.0143 35.9517 34.7507 36.5872 34.75 37.25V64.75C34.7507 65.4128 35.0143 66.0483 35.483 66.517C35.9517 66.9857 36.5872 67.2493 37.25 67.25H64.75C65.4128 67.2493 66.0483 66.9857 66.517 66.517C66.9857 66.0483 67.2493 65.4128 67.25 64.75V37.25C67.2493 36.5872 66.9857 35.9517 66.517 35.483C66.0483 35.0143 65.4128 34.7507 64.75 34.75ZM49.75 37.25V49.75H37.25V37.25H49.75ZM37.25 52.25H49.75V64.75H37.25V52.25ZM52.25 64.75V37.25H64.75V64.75H52.25Z" fill="white"/>
</svg>
