<svg width="24" height="25" viewBox="0 0 24 25" fill="none" xmlns="http://www.w3.org/2000/svg">
<path d="M7 15.4844H9C9 16.5644 10.37 17.4844 12 17.4844C13.63 17.4844 15 16.5644 15 15.4844C15 14.3844 13.96 13.9844 11.76 13.4544C9.64 12.9244 7 12.2644 7 9.48438C7 7.69438 8.47 6.17437 10.5 5.66437V3.48438H13.5V5.66437C15.53 6.17437 17 7.69438 17 9.48438H15C15 8.40438 13.63 7.48438 12 7.48438C10.37 7.48438 9 8.40438 9 9.48438C9 10.5844 10.04 10.9844 12.24 11.5144C14.36 12.0444 17 12.7044 17 15.4844C17 17.2744 15.53 18.7944 13.5 19.3044V21.4844H10.5V19.3044C8.47 18.7944 7 17.2744 7 15.4844Z" fill="#2F9089"/>
</svg>
