<svg width="50" height="50" viewBox="0 0 50 50" fill="none" xmlns="http://www.w3.org/2000/svg">
<circle cx="25" cy="25" r="25" fill="#F6F6F6"/>
<g clip-path="url(#clip0_23_124)">
<path d="M27.5 15.625C28.3919 15.625 29.2839 15.6738 30.1758 15.7715C30.332 15.791 30.5566 15.8203 30.8496 15.8594C31.1426 15.8984 31.4714 15.957 31.8359 16.0352C32.2005 16.1133 32.5651 16.2044 32.9297 16.3086C33.2943 16.4128 33.6361 16.5397 33.9551 16.6895C34.2741 16.8392 34.5247 17.0052 34.707 17.1875C34.8893 17.3698 34.987 17.5781 35 17.8125V32.1875C35 32.4154 34.9023 32.6204 34.707 32.8027C34.5117 32.985 34.2611 33.151 33.9551 33.3008C33.6491 33.4505 33.3105 33.5775 32.9395 33.6816C32.5684 33.7858 32.2005 33.877 31.8359 33.9551C31.4714 34.0332 31.1458 34.0951 30.8594 34.1406C30.5729 34.1862 30.3451 34.2155 30.1758 34.2285C29.2839 34.3262 28.3919 34.375 27.5 34.375C26.6016 34.375 25.7096 34.3262 24.8242 34.2285C24.668 34.2155 24.4434 34.1862 24.1504 34.1406C23.8574 34.0951 23.5286 34.0365 23.1641 33.9648C22.7995 33.8932 22.4349 33.8021 22.0703 33.6914C21.7057 33.5807 21.3639 33.4538 21.0449 33.3105C20.7259 33.1673 20.4753 33.0013 20.293 32.8125C20.1107 32.6237 20.013 32.4154 20 32.1875V30H15.8301C15.6022 30 15.4069 29.9186 15.2441 29.7559C15.0814 29.5931 15 29.3978 15 29.1699V20.8301C15 20.6022 15.0814 20.4069 15.2441 20.2441C15.4069 20.0814 15.6022 20 15.8301 20H20V17.8125C20 17.5846 20.0977 17.3796 20.293 17.1973C20.4883 17.015 20.7389 16.849 21.0449 16.6992C21.3509 16.5495 21.6895 16.4225 22.0605 16.3184C22.4316 16.2142 22.7995 16.123 23.1641 16.0449C23.5286 15.9668 23.8542 15.9082 24.1406 15.8691C24.4271 15.8301 24.6549 15.7975 24.8242 15.7715C25.7096 15.6738 26.6016 15.625 27.5 15.625ZM27.5 16.875C27.0768 16.875 26.6048 16.888 26.084 16.9141C25.5632 16.9401 25.0358 16.9922 24.502 17.0703C23.9681 17.1484 23.444 17.2428 22.9297 17.3535C22.4154 17.4642 21.9661 17.6172 21.582 17.8125C21.9857 18.0013 22.4382 18.1543 22.9395 18.2715C23.4408 18.3887 23.9583 18.4831 24.4922 18.5547C25.026 18.6263 25.5501 18.6751 26.0645 18.7012C26.5788 18.7272 27.0573 18.7435 27.5 18.75C27.9362 18.75 28.4115 18.737 28.9258 18.7109C29.4401 18.6849 29.9642 18.6361 30.498 18.5645C31.0319 18.4928 31.5495 18.3984 32.0508 18.2812C32.5521 18.1641 33.0078 18.0078 33.418 17.8125C33.0273 17.6302 32.5781 17.4805 32.0703 17.3633C31.5625 17.2461 31.0417 17.1484 30.5078 17.0703C29.974 16.9922 29.4434 16.9434 28.916 16.9238C28.3887 16.9043 27.9167 16.888 27.5 16.875ZM18.9355 26.7871H21.0547L21.5527 28.2812H23.2227L20.8301 21.7188H19.1992L16.7773 28.2812H18.4375L18.9355 26.7871ZM33.75 31.9824V29.0234C33.3203 29.2122 32.8418 29.3685 32.3145 29.4922C31.7871 29.6159 31.2402 29.7135 30.6738 29.7852C30.1074 29.8568 29.554 29.9121 29.0137 29.9512C28.4733 29.9902 27.9688 30.0065 27.5 30C27.0247 30 26.5527 29.987 26.084 29.9609C25.6152 29.9349 25.1432 29.8926 24.668 29.834C24.5182 29.9447 24.3522 30 24.1699 30H21.25V31.9824C21.4388 32.1322 21.6927 32.2656 22.0117 32.3828C22.3307 32.5 22.6823 32.6009 23.0664 32.6855C23.4505 32.7702 23.8574 32.8385 24.2871 32.8906C24.7168 32.9427 25.127 32.9883 25.5176 33.0273C25.9082 33.0664 26.2826 33.0924 26.6406 33.1055C26.9987 33.1185 27.2852 33.125 27.5 33.125C27.7279 33.125 28.0143 33.1185 28.3594 33.1055C28.7044 33.0924 29.0755 33.0697 29.4727 33.0371C29.8698 33.0046 30.2832 32.959 30.7129 32.9004C31.1426 32.8418 31.5462 32.7702 31.9238 32.6855C32.3014 32.6009 32.6562 32.5 32.9883 32.3828C33.3203 32.2656 33.5742 32.1322 33.75 31.9824ZM33.75 27.627V24.0234C33.3203 24.2122 32.8418 24.3685 32.3145 24.4922C31.7871 24.6159 31.2402 24.7135 30.6738 24.7852C30.1074 24.8568 29.554 24.9121 29.0137 24.9512C28.4733 24.9902 27.9688 25.0065 27.5 25C27.0833 25 26.6667 24.9902 26.25 24.9707C25.8333 24.9512 25.4167 24.9186 25 24.873V28.623C25.4167 28.6686 25.8333 28.7012 26.25 28.7207C26.6667 28.7402 27.0833 28.75 27.5 28.75C27.7409 28.75 28.0339 28.7435 28.3789 28.7305C28.724 28.7174 29.0918 28.6947 29.4824 28.6621C29.873 28.6296 30.2799 28.584 30.7031 28.5254C31.1263 28.4668 31.5267 28.3952 31.9043 28.3105C32.2819 28.2259 32.6335 28.1283 32.959 28.0176C33.2845 27.9069 33.5482 27.7767 33.75 27.627ZM33.75 22.627V19.0234C33.3203 19.2122 32.8418 19.3685 32.3145 19.4922C31.7871 19.6159 31.2402 19.7135 30.6738 19.7852C30.1074 19.8568 29.554 19.9121 29.0137 19.9512C28.4733 19.9902 27.9688 20.0065 27.5 20C27.0378 20 26.5332 19.9837 25.9863 19.9512C25.4395 19.9186 24.8861 19.8665 24.3262 19.7949C23.7663 19.7233 23.2227 19.6224 22.6953 19.4922C22.168 19.362 21.6862 19.2057 21.25 19.0234V20H24.1699C24.3978 20 24.5931 20.0814 24.7559 20.2441C24.9186 20.4069 25 20.6022 25 20.8301V23.623C25.4167 23.6686 25.8333 23.7012 26.25 23.7207C26.6667 23.7402 27.0833 23.75 27.5 23.75C27.7409 23.75 28.0339 23.7435 28.3789 23.7305C28.724 23.7174 29.0918 23.6947 29.4824 23.6621C29.873 23.6296 30.2799 23.584 30.7031 23.5254C31.1263 23.4668 31.5267 23.3952 31.9043 23.3105C32.2819 23.2259 32.6335 23.1283 32.959 23.0176C33.2845 22.9069 33.5482 22.7767 33.75 22.627ZM19.3164 25.5176L19.9902 23.4766L20.6445 25.5176H19.3164Z" fill="#2F9089"/>
</g>
<defs>
<clipPath id="clip0_23_124">
<rect width="20" height="20" fill="white" transform="translate(15 15)"/>
</clipPath>
</defs>
</svg>
