<svg width="80" height="80" viewBox="0 0 80 80" fill="none" xmlns="http://www.w3.org/2000/svg">
<circle cx="40" cy="40" r="40" fill="white"/>
<g clip-path="url(#clip0_2168_5194)">
<path d="M55.5 53H54V49H54.5C54.6326 49 54.7598 48.9473 54.8536 48.8536C54.9473 48.7598 55 48.6326 55 48.5C55 48.3674 54.9473 48.2402 54.8536 48.1464C54.7598 48.0527 54.6326 48 54.5 48H45V41H46C46.1326 41 46.2598 40.9473 46.3536 40.8536C46.4473 40.7598 46.5 40.6326 46.5 40.5C46.5 40.3674 46.4473 40.2402 46.3536 40.1464C46.2598 40.0527 46.1326 40 46 40H34C33.8674 40 33.7402 40.0527 33.6464 40.1464C33.5527 40.2402 33.5 40.3674 33.5 40.5C33.5 40.6326 33.5527 40.7598 33.6464 40.8536C33.7402 40.9473 33.8674 41 34 41H35V44H25.5C25.3674 44 25.2402 44.0527 25.1464 44.1464C25.0527 44.2402 25 44.3674 25 44.5C25 44.6326 25.0527 44.7598 25.1464 44.8536C25.2402 44.9473 25.3674 45 25.5 45H26V53H24.5C24.3674 53 24.2402 53.0527 24.1464 53.1464C24.0527 53.2402 24 53.3674 24 53.5V55.5C24 55.6326 24.0527 55.7598 24.1464 55.8536C24.2402 55.9473 24.3674 56 24.5 56H55.5C55.6326 56 55.7598 55.9473 55.8536 55.8536C55.9473 55.7598 56 55.6326 56 55.5V53.5C56 53.3674 55.9473 53.2402 55.8536 53.1464C55.7598 53.0527 55.6326 53 55.5 53ZM27 45H35V48.5C35 48.6326 35.0527 48.7598 35.1464 48.8536C35.2402 48.9473 35.3674 49 35.5 49C35.6326 49 35.7598 48.9473 35.8536 48.8536C35.9473 48.7598 36 48.6326 36 48.5V41H44V53H36V50.5C36 50.3674 35.9473 50.2402 35.8536 50.1464C35.7598 50.0527 35.6326 50 35.5 50C35.3674 50 35.2402 50.0527 35.1464 50.1464C35.0527 50.2402 35 50.3674 35 50.5V53H27V45ZM55 55H25V54H49.5C49.6326 54 49.7598 53.9473 49.8536 53.8536C49.9473 53.7598 50 53.6326 50 53.5C50 53.3674 49.9473 53.2402 49.8536 53.1464C49.7598 53.0527 49.6326 53 49.5 53H45V49H53V53H51.5C51.3674 53 51.2402 53.0527 51.1464 53.1464C51.0527 53.2402 51 53.3674 51 53.5C51 53.6326 51.0527 53.7598 51.1464 53.8536C51.2402 53.9473 51.3674 54 51.5 54H55V55Z" fill="#2F9089"/>
<path d="M36.8342 35.0565L36.2582 38.4155C36.2425 38.5075 36.2528 38.602 36.2879 38.6884C36.3231 38.7748 36.3817 38.8496 36.4572 38.9045C36.5327 38.9593 36.622 38.9919 36.715 38.9986C36.8081 39.0054 36.9011 38.9859 36.9837 38.9425L40.0002 37.3565L43.0162 38.9425C43.0988 38.9859 43.1919 39.0054 43.2849 38.9986C43.378 38.9919 43.4673 38.9593 43.5428 38.9045C43.6182 38.8496 43.6769 38.7748 43.712 38.6884C43.7472 38.602 43.7575 38.5075 43.7417 38.4155L43.1657 35.0565L45.6067 32.6775C45.6736 32.6124 45.7209 32.5298 45.7432 32.4392C45.7656 32.3485 45.7622 32.2535 45.7333 32.1647C45.7044 32.0759 45.6512 31.997 45.5798 31.9369C45.5084 31.8768 45.4216 31.8378 45.3292 31.8245L41.9567 31.3345L40.4502 28.279C40.4042 28.2009 40.3387 28.1362 40.26 28.0912C40.1814 28.0463 40.0923 28.0226 40.0017 28.0226C39.9111 28.0226 39.8221 28.0463 39.7434 28.0912C39.6648 28.1362 39.5992 28.2009 39.5532 28.279L38.0452 31.3345L34.6727 31.8245C34.5803 31.8378 34.4935 31.8768 34.4221 31.9369C34.3507 31.997 34.2975 32.0759 34.2687 32.1647C34.2398 32.2535 34.2363 32.3485 34.2587 32.4392C34.2811 32.5298 34.3284 32.6124 34.3952 32.6775L36.8342 35.0565ZM38.4477 32.2865C38.5279 32.2748 38.6041 32.2439 38.6697 32.1962C38.7353 32.1486 38.7883 32.0857 38.8242 32.013L40.0002 29.63L41.1767 32.013C41.2126 32.0856 41.2655 32.1485 41.331 32.1961C41.3965 32.2438 41.4726 32.2748 41.5527 32.2865L44.1827 32.6685L42.2797 34.524C42.2216 34.5806 42.1782 34.6504 42.1531 34.7275C42.128 34.8046 42.1221 34.8866 42.1357 34.9665L42.5857 37.586L40.2357 36.349C40.164 36.3113 40.0842 36.2917 40.0032 36.2917C39.9222 36.2917 39.8424 36.3113 39.7707 36.349L37.4152 37.586L37.8652 34.9665C37.8789 34.8866 37.8729 34.8046 37.8478 34.7275C37.8228 34.6504 37.7793 34.5806 37.7212 34.524L35.8177 32.6685L38.4477 32.2865Z" fill="#2F9089"/>
<path d="M40 27C40.1326 27 40.2598 26.9473 40.3536 26.8536C40.4473 26.7598 40.5 26.6326 40.5 26.5V24.5C40.5 24.3674 40.4473 24.2402 40.3536 24.1464C40.2598 24.0527 40.1326 24 40 24C39.8674 24 39.7402 24.0527 39.6464 24.1464C39.5527 24.2402 39.5 24.3674 39.5 24.5V26.5C39.5 26.6326 39.5527 26.7598 39.6464 26.8536C39.7402 26.9473 39.8674 27 40 27Z" fill="#2F9089"/>
<path d="M43.9999 28.5C44.1325 28.5 44.2596 28.4473 44.3534 28.3535L45.5604 27.1465C45.6515 27.0522 45.7019 26.9259 45.7007 26.7948C45.6996 26.6637 45.647 26.5383 45.5543 26.4456C45.4616 26.3529 45.3362 26.3003 45.2051 26.2992C45.074 26.298 44.9477 26.3484 44.8534 26.4395L43.6464 27.6465C43.5765 27.7164 43.5289 27.8055 43.5096 27.9025C43.4903 27.9995 43.5002 28.1 43.5381 28.1913C43.5759 28.2827 43.64 28.3608 43.7222 28.4157C43.8044 28.4706 43.901 28.5 43.9999 28.5Z" fill="#2F9089"/>
<path d="M35.6463 28.3535C35.7406 28.4446 35.8669 28.495 35.998 28.4938C36.1291 28.4927 36.2545 28.4401 36.3472 28.3474C36.4399 28.2547 36.4925 28.1293 36.4936 27.9982C36.4947 27.8671 36.4443 27.7408 36.3533 27.6465L35.1463 26.4395C35.1001 26.3917 35.045 26.3537 34.984 26.3275C34.923 26.3012 34.8574 26.2875 34.791 26.2869C34.7246 26.2863 34.6587 26.299 34.5973 26.3241C34.5358 26.3492 34.48 26.3864 34.4331 26.4333C34.3861 26.4803 34.349 26.5361 34.3239 26.5975C34.2987 26.659 34.2861 26.7248 34.2866 26.7912C34.2872 26.8576 34.301 26.9232 34.3272 26.9842C34.3534 27.0452 34.3915 27.1004 34.4393 27.1465L35.6463 28.3535Z" fill="#2F9089"/>
</g>
<defs>
<clipPath id="clip0_2168_5194">
<rect width="32" height="32" fill="white" transform="translate(24 24)"/>
</clipPath>
</defs>
</svg>
