<svg width="24" height="25" viewBox="0 0 24 25" fill="none" xmlns="http://www.w3.org/2000/svg">
<path d="M12 2.81152C10.0716 2.81152 8.18657 3.38335 6.58319 4.45469C4.97982 5.52604 3.73013 7.04878 2.99218 8.83036C2.25422 10.6119 2.06114 12.5723 2.43735 14.4637C2.81355 16.355 3.74215 18.0923 5.10571 19.4558C6.46928 20.8194 8.20656 21.748 10.0979 22.1242C11.9892 22.5004 13.9496 22.3073 15.7312 21.5693C17.5127 20.8314 19.0355 19.5817 20.1068 17.9783C21.1782 16.375 21.75 14.4899 21.75 12.5615C21.747 9.97658 20.7188 7.49836 18.891 5.67052C17.0632 3.84269 14.585 2.8145 12 2.81152ZM20.25 12.5615C20.2507 13.3224 20.1456 14.0796 19.9378 14.8115H16.3275C16.5576 13.3203 16.5576 11.8027 16.3275 10.3115H19.9378C20.1456 11.0434 20.2507 11.8007 20.25 12.5615ZM9.5625 16.3115H14.4375C13.9573 17.8852 13.1235 19.3282 12 20.5303C10.877 19.3279 10.0434 17.885 9.5625 16.3115ZM9.19688 14.8115C8.93931 13.3226 8.93931 11.8005 9.19688 10.3115H14.8106C15.0682 11.8005 15.0682 13.3226 14.8106 14.8115H9.19688ZM3.75 12.5615C3.74934 11.8007 3.85441 11.0434 4.06219 10.3115H7.6725C7.44244 11.8027 7.44244 13.3203 7.6725 14.8115H4.06219C3.85441 14.0796 3.74934 13.3224 3.75 12.5615ZM14.4375 8.81152H9.5625C10.0427 7.23783 10.8765 5.7948 12 4.59277C13.123 5.7952 13.9567 7.2381 14.4375 8.81152ZM19.3434 8.81152H16.0041C15.5831 7.26739 14.8738 5.81687 13.9134 4.53652C15.0738 4.81527 16.1602 5.34163 17.098 6.07951C18.0359 6.8174 18.8032 7.74937 19.3472 8.81152H19.3434ZM10.0866 4.53652C9.12623 5.81687 8.41687 7.26739 7.99594 8.81152H4.65282C5.19682 7.74937 5.96407 6.8174 6.90196 6.07951C7.83985 5.34163 8.92621 4.81527 10.0866 4.53652ZM4.65282 16.3115H7.99594C8.41687 17.8557 9.12623 19.3062 10.0866 20.5865C8.92621 20.3078 7.83985 19.7814 6.90196 19.0435C5.96407 18.3056 5.19682 17.3737 4.65282 16.3115ZM13.9134 20.5865C14.8738 19.3062 15.5831 17.8557 16.0041 16.3115H19.3472C18.8032 17.3737 18.0359 18.3056 17.098 19.0435C16.1602 19.7814 15.0738 20.3078 13.9134 20.5865Z" fill="#2F9089"/>
</svg>
