<svg width="80" height="80" viewBox="0 0 80 80" fill="none" xmlns="http://www.w3.org/2000/svg">
<circle cx="40" cy="40" r="40" fill="white"/>
<g clip-path="url(#clip0_2168_5223)">
<path d="M45.5002 24.5C43.7471 24.5023 42.0254 24.9655 40.5077 25.8431C38.9901 26.7206 37.7298 27.9817 36.8532 29.5H27.5002C27.3676 29.5 27.2404 29.5527 27.1467 29.6464C27.0529 29.7402 27.0002 29.8674 27.0002 30V48.882L24.5527 53.7765C24.5146 53.8527 24.4967 53.9375 24.5005 54.0226C24.5044 54.1078 24.5299 54.1905 24.5748 54.263C24.6196 54.3355 24.6822 54.3953 24.7567 54.4368C24.8312 54.4783 24.915 54.5 25.0002 54.5H42.0002C42.0002 54.7652 42.1056 55.0196 42.2931 55.2071C42.4807 55.3946 42.735 55.5 43.0002 55.5H48.0002C48.2654 55.5 48.5198 55.3946 48.7073 55.2071C48.8949 55.0196 49.0002 54.7652 49.0002 54.5H55.0002C55.0857 54.5005 55.1698 54.479 55.2446 54.4377C55.3194 54.3964 55.3824 54.3366 55.4275 54.2641C55.4727 54.1915 55.4985 54.1086 55.5024 54.0232C55.5064 53.9379 55.4884 53.8529 55.4502 53.7765L53.0002 48.882V41.092C54.2731 39.6503 55.1025 37.8717 55.3888 35.9699C55.675 34.0681 55.4058 32.1241 54.6137 30.3716C53.8215 28.6191 52.54 27.1327 50.9233 26.0911C49.3066 25.0495 47.4234 24.497 45.5002 24.5ZM42.0002 53.5H25.8092L27.8092 49.5H42.0002V53.5ZM42.0002 48.5H28.0002V30.5H36.3412C35.5096 32.3916 35.2878 34.4953 35.7066 36.5187C36.1254 38.5421 37.1641 40.3849 38.6782 41.791L37.3782 43.361L33.2417 41.061C33.136 41.0029 33.0129 40.9849 32.895 41.0105C32.7771 41.036 32.6724 41.1033 32.6002 41.2L29.6002 45.2L30.4002 45.8L33.1387 42.15L37.2572 44.438C37.3593 44.4948 37.4781 44.514 37.5929 44.4924C37.7077 44.4707 37.8113 44.4096 37.8857 44.3195L39.4417 42.438C40.4999 43.2481 41.71 43.8374 43.0002 44.171V47.5C42.735 47.5 42.4807 47.6054 42.2931 47.7929C42.1056 47.9804 42.0002 48.2348 42.0002 48.5ZM43.0002 54.5V48.5H48.0002V54.5H43.0002ZM44.0002 47.5V44.375C44.9933 44.5417 46.0072 44.5417 47.0002 44.375V47.5H44.0002ZM48.0002 47.5V44.171C49.4755 43.79 50.8438 43.076 52.0002 42.084V48.5H49.0002C49.0002 48.2348 48.8949 47.9804 48.7073 47.7929C48.5198 47.6054 48.2654 47.5 48.0002 47.5ZM54.1912 53.5H49.0002V49.5H52.1912L54.1912 53.5ZM45.5002 43.5C43.7202 43.5 41.9801 42.9722 40.5001 41.9832C39.0201 40.9943 37.8665 39.5887 37.1853 37.9441C36.5041 36.2996 36.3259 34.49 36.6732 32.7442C37.0204 30.9984 37.8776 29.3947 39.1363 28.136C40.3949 26.8774 41.9986 26.0202 43.7444 25.6729C45.4902 25.3257 47.2998 25.5039 48.9444 26.1851C50.5889 26.8663 51.9945 28.0198 52.9835 29.4999C53.9724 30.9799 54.5002 32.72 54.5002 34.5C54.4975 36.8861 53.5483 39.1737 51.8611 40.8609C50.1739 42.5481 47.8863 43.4972 45.5002 43.5Z" fill="#2F9089"/>
<path d="M45.5 26.5C43.9178 26.5 42.371 26.9692 41.0554 27.8482C39.7398 28.7273 38.7145 29.9767 38.109 31.4385C37.5035 32.9003 37.345 34.5089 37.6537 36.0607C37.9624 37.6126 38.7243 39.038 39.8431 40.1569C40.962 41.2757 42.3874 42.0376 43.9393 42.3463C45.4911 42.655 47.0997 42.4965 48.5615 41.891C50.0233 41.2855 51.2727 40.2602 52.1518 38.9446C53.0308 37.629 53.5 36.0823 53.5 34.5C53.4975 32.379 52.6538 30.3457 51.1541 28.8459C49.6543 27.3462 47.621 26.5025 45.5 26.5ZM45.5 41.5C44.0048 41.4996 42.5495 41.0173 41.35 40.1245L46.63 33.7325L46.807 35.3655L47.801 35.2585L47.4965 32.4465C47.4823 32.3148 47.4164 32.1941 47.3133 32.111C47.2101 32.0278 47.0782 31.989 46.9465 32.003L44.1345 32.3075L44.2415 33.3015L45.8315 33.1295L40.5865 39.4795C39.4343 38.3404 38.7132 36.8367 38.5464 35.225C38.3796 33.6134 38.7775 31.9939 39.6721 30.643C40.5666 29.2921 41.9024 28.2936 43.4513 27.8181C45.0002 27.3425 46.6661 27.4194 48.1646 28.0356C49.6631 28.6518 50.9012 29.7691 51.6675 31.1967C52.4338 32.6242 52.6807 34.2735 52.3662 35.863C52.0517 37.4524 51.1951 38.8833 49.9428 39.9114C48.6906 40.9395 47.1202 41.501 45.5 41.5Z" fill="#2F9089"/>
</g>
<defs>
<clipPath id="clip0_2168_5223">
<rect width="32" height="32" fill="white" transform="translate(24 24)"/>
</clipPath>
</defs>
</svg>
