<svg width="24" height="24" viewBox="0 0 24 24" fill="none" xmlns="http://www.w3.org/2000/svg">
<path d="M10.9854 17.6944C11.0902 17.7989 11.1735 17.9231 11.2302 18.0598C11.287 18.1966 11.3162 18.3432 11.3162 18.4913C11.3162 18.6393 11.287 18.7859 11.2302 18.9227C11.1735 19.0594 11.0902 19.1836 10.9854 19.2881L10.5054 19.7681C9.99583 20.2796 9.38996 20.6849 8.7228 20.9607C8.05563 21.2365 7.34041 21.3773 6.61848 21.375C5.5313 21.3754 4.46843 21.0532 3.56436 20.4494C2.66028 19.8455 1.95562 18.9871 1.53952 17.9827C1.12343 16.9783 1.01459 15.873 1.22679 14.8068C1.43899 13.7405 1.96268 12.7611 2.73161 11.9925L5.98942 8.73469C6.68236 8.04186 7.54789 7.54682 8.4964 7.30084C9.44492 7.05485 10.4419 7.06686 11.3843 7.33561C12.3266 7.60437 13.1799 8.1201 13.856 8.82943C14.532 9.53875 15.0062 10.4159 15.2294 11.37C15.2664 11.5151 15.274 11.6661 15.2519 11.8141C15.2298 11.9622 15.1783 12.1043 15.1005 12.2323C15.0228 12.3602 14.9202 12.4713 14.799 12.5591C14.6777 12.6469 14.5401 12.7096 14.3943 12.7435C14.2485 12.7775 14.0974 12.782 13.9498 12.7567C13.8023 12.7315 13.6612 12.6771 13.5349 12.5967C13.4087 12.5163 13.2997 12.4115 13.2145 12.2884C13.1292 12.1653 13.0694 12.0265 13.0385 11.88C12.906 11.3168 12.6256 10.7992 12.226 10.3806C11.8265 9.96213 11.3225 9.65791 10.766 9.49944C10.2096 9.34097 9.62088 9.334 9.06083 9.47925C8.50077 9.6245 7.98967 9.91669 7.58036 10.3256L4.32255 13.5834C3.86843 14.0372 3.55907 14.6154 3.43359 15.245C3.30812 15.8746 3.37216 16.5272 3.61762 17.1204C3.86308 17.7136 4.27893 18.2206 4.81258 18.5774C5.34623 18.9343 5.97372 19.1248 6.61567 19.125C7.04222 19.1263 7.46478 19.0429 7.85888 18.8797C8.25298 18.7165 8.6108 18.4768 8.91161 18.1744L9.39067 17.6944C9.49521 17.5894 9.61946 17.506 9.75629 17.4492C9.89312 17.3923 10.0398 17.363 10.188 17.363C10.3362 17.363 10.4829 17.3923 10.6197 17.4492C10.7566 17.506 10.8808 17.5894 10.9854 17.6944ZM21.265 4.23469C20.2339 3.20393 18.8357 2.62488 17.3777 2.62488C15.9197 2.62488 14.5215 3.20393 13.4904 4.23469L13.0113 4.71376C12.8 4.9251 12.6812 5.21175 12.6812 5.51063C12.6812 5.80952 12.8 6.09616 13.0113 6.30751C13.2226 6.51885 13.5093 6.63758 13.8082 6.63758C14.1071 6.63758 14.3937 6.51885 14.605 6.30751L15.085 5.82751C15.6942 5.21834 16.5204 4.87611 17.3819 4.87611C18.2434 4.87611 19.0696 5.21834 19.6788 5.82751C20.288 6.43668 20.6302 7.26289 20.6302 8.12438C20.6302 8.98588 20.288 9.81209 19.6788 10.4213L16.4154 13.6744C16.1145 13.9768 15.7567 14.2165 15.3626 14.3797C14.9685 14.5429 14.546 14.6263 14.1194 14.625C13.3877 14.6245 12.6776 14.3768 12.1043 13.9221C11.531 13.4674 11.1281 12.8324 10.961 12.12C10.8934 11.8293 10.713 11.5775 10.4597 11.4197C10.2063 11.262 9.90071 11.2114 9.61005 11.2791C9.31939 11.3467 9.0675 11.527 8.90979 11.7804C8.75208 12.0337 8.70148 12.3393 8.76911 12.63C9.0514 13.8365 9.73296 14.9122 10.7033 15.6827C11.6736 16.4532 12.8757 16.8734 14.1147 16.875H14.1194C14.8417 16.877 15.5572 16.7357 16.2245 16.4594C16.8918 16.1831 17.4978 15.7773 18.0072 15.2653L21.265 12.0075C21.7755 11.4972 22.1804 10.8913 22.4567 10.2245C22.7329 9.55762 22.8751 8.84289 22.8751 8.1211C22.8751 7.39931 22.7329 6.68458 22.4567 6.01775C22.1804 5.35091 21.7755 4.74503 21.265 4.23469Z" fill="#403B43"/>
</svg>
