<svg width="24" height="25" viewBox="0 0 24 25" fill="none" xmlns="http://www.w3.org/2000/svg">
<g clip-path="url(#clip0_213_7720)">
<path d="M12 14.0615C12.663 14.0615 13.2989 13.7981 13.7678 13.3293C14.2366 12.8604 14.5 12.2246 14.5 11.5615C14.5 10.8985 14.2366 10.2626 13.7678 9.79376C13.2989 9.32492 12.663 9.06152 12 9.06152C11.337 9.06152 10.7011 9.32492 10.2322 9.79376C9.76339 10.2626 9.5 10.8985 9.5 11.5615C9.5 12.2246 9.76339 12.8604 10.2322 13.3293C10.7011 13.7981 11.337 14.0615 12 14.0615Z" fill="#2F9089"/>
<path d="M19.0697 3.99027H19.0708C22.9758 7.89527 22.9758 14.2273 19.0708 18.1323L13.6677 23.5353C13.2252 23.9774 12.6253 24.2257 11.9998 24.2257C11.3742 24.2257 10.7743 23.9774 10.3317 23.5353L4.95675 18.1603L4.92875 18.1323C1.02375 14.2273 1.02375 7.89527 4.92875 3.99027C8.83375 0.0852735 15.1648 0.0852735 19.0697 3.99027ZM5.98875 5.05027C4.39494 6.6443 3.49957 8.80713 3.49957 11.0613C3.49957 13.3154 4.39494 15.4772 5.98875 17.0713L6.01175 17.0953L6.01375 17.0973L11.3917 22.4753C11.5529 22.6359 11.7712 22.7261 11.9987 22.7261C12.2263 22.7261 12.4446 22.6359 12.6058 22.4753L18.0088 17.0713C19.5837 15.4734 20.4631 13.3175 20.455 11.0739C20.447 8.83028 19.5522 6.68084 17.9657 5.09427C16.3793 3.50771 14.2299 2.61273 11.9863 2.60449C9.74269 2.59624 7.58679 3.47541 5.98875 5.05027Z" fill="#2F9089"/>
</g>
<defs>
<clipPath id="clip0_213_7720">
<rect width="24" height="24" fill="white" transform="translate(0 0.561523)"/>
</clipPath>
</defs>
</svg>
