<svg width="48" height="48" viewBox="0 0 48 48" fill="none" xmlns="http://www.w3.org/2000/svg">
<path d="M29.25 39.75L40.5 39.75C41.4946 39.75 42.4484 39.3549 43.1517 38.6517C43.8549 37.9484 44.25 36.9946 44.25 36L44.25 24C44.25 23.0054 43.8549 22.0516 43.1517 21.3484C42.4484 20.6451 41.4946 20.25 40.5 20.25L30 20.25L30 19.5C30 18.1076 30.5531 16.7723 31.5377 15.7877C32.5223 14.8031 33.8576 14.25 35.25 14.25C35.8467 14.25 36.419 14.0129 36.841 13.591C37.2629 13.169 37.5 12.5967 37.5 12C37.5 11.4033 37.263 10.831 36.841 10.409C36.419 9.98705 35.8467 9.75 35.25 9.75C32.6651 9.75298 30.1868 10.7812 28.359 12.609C26.5312 14.4368 25.503 16.9151 25.5 19.5L25.5 36C25.5 36.9946 25.8951 37.9484 26.5984 38.6516C27.3016 39.3549 28.2554 39.75 29.25 39.75ZM30 24.75L39.75 24.75L39.75 35.25L30 35.25L30 24.75ZM7.5 39.75L18.75 39.75C19.7446 39.75 20.6984 39.3549 21.4016 38.6516C22.1049 37.9484 22.5 36.9946 22.5 36L22.5 24C22.5 23.0054 22.1049 22.0516 21.4017 21.3483C20.6984 20.6451 19.7446 20.25 18.75 20.25L8.25 20.25L8.25 19.5C8.25 18.1076 8.80313 16.7723 9.78769 15.7877C10.7723 14.8031 12.1076 14.25 13.5 14.25C14.0967 14.25 14.669 14.0129 15.091 13.591C15.5129 13.169 15.75 12.5967 15.75 12C15.75 11.4033 15.5129 10.831 15.091 10.409C14.669 9.98705 14.0967 9.75 13.5 9.75C10.9151 9.75297 8.43683 10.7812 6.609 12.609C4.78116 14.4368 3.75298 16.915 3.75 19.5L3.75 36C3.75 36.9946 4.14509 37.9484 4.84835 38.6516C5.55161 39.3549 6.50544 39.75 7.5 39.75ZM8.25 24.75L18 24.75L18 35.25L8.25 35.25L8.25 24.75Z" fill="#2F9089"/>
</svg>
