<svg width="21" height="24" viewBox="0 0 21 24" fill="none" xmlns="http://www.w3.org/2000/svg">
<path d="M14.625 21.375C14.625 22.2 13.95 22.875 13.125 22.875H4.875C4.05 22.875 3.375 22.2 3.375 21.375V2.625C3.375 1.8 4.05 1.125 4.875 1.125H13.125C13.95 1.125 14.625 1.8 14.625 2.625V21.375Z" fill="white"/>
<path d="M14.625 21.3705V2.2785C14.6138 2.26725 14.6077 2.26125 14.5965 2.25H5.25C4.83525 2.25 4.5 2.586 4.5 3V22.5C4.635 22.635 4.70925 22.7108 4.84425 22.845L13.1205 22.8705C13.9507 22.8728 14.625 22.2008 14.625 21.3705Z" fill="#ECEFF1"/>
<path d="M3.75 3H14.625V21H3.75V3Z" fill="#2F9089"/>
<path d="M3.375 3H4.5V21H3.375V3Z" fill="#2F9089"/>
<path d="M6 7.875C6.825 7.875 7.5 8.54925 7.5 9.375C7.5 10.2 6.825 10.875 6 10.875C5.175 10.875 4.5 10.2 4.5 9.375C4.5 8.54925 5.175 7.875 6 7.875Z" fill="#2F9089"/>
<path d="M7.12501 12.375C8.18251 12.375 9.06001 13.1025 9.30001 14.0775C8.43001 14.88 7.27501 15.375 6.00001 15.375C4.72501 15.375 3.57001 14.88 2.70001 14.0775C2.94001 13.1025 3.81751 12.375 4.87501 12.375H7.12501Z" fill="#2F9089"/>
<path d="M10.125 3H7.875C7.668 3 7.5 2.832 7.5 2.625C7.5 2.418 7.668 2.25 7.875 2.25H10.125C10.332 2.25 10.5 2.418 10.5 2.625C10.5 2.832 10.332 3 10.125 3Z" fill="#111111"/>
<path d="M13.125 23.25H4.875C3.84075 23.25 3 22.4093 3 21.375V16.5C3 16.293 3.168 16.125 3.375 16.125C3.582 16.125 3.75 16.293 3.75 16.5V21.375C3.75 21.9953 4.25475 22.5 4.875 22.5H13.125C13.7452 22.5 14.25 21.9953 14.25 21.375V2.625C14.25 2.00475 13.7452 1.5 13.125 1.5H4.875C4.25475 1.5 3.75 2.00475 3.75 2.625V4.5C3.75 4.707 3.582 4.875 3.375 4.875C3.168 4.875 3 4.707 3 4.5V2.625C3 1.59075 3.84075 0.75 4.875 0.75H13.125C14.1593 0.75 15 1.59075 15 2.625V21.375C15 22.4093 14.1593 23.25 13.125 23.25Z" fill="#111111"/>
<path d="M19.8754 23.25C19.6684 23.25 19.4629 23.082 19.4629 22.875C19.4629 22.668 19.5934 22.5 19.8004 22.5H19.8754C20.0824 22.5 20.2504 22.668 20.2504 22.875C20.2504 23.082 20.0824 23.25 19.8754 23.25Z" fill="#111111"/>
<path d="M9.375 19.5H5.625C5.418 19.5 5.25 19.332 5.25 19.125C5.25 18.918 5.418 18.75 5.625 18.75H9.375C9.582 18.75 9.75 18.918 9.75 19.125C9.75 19.332 9.582 19.5 9.375 19.5Z" fill="#111111"/>
<path d="M13.125 18H10.125C9.918 18 9.75 17.832 9.75 17.625C9.75 17.418 9.918 17.25 10.125 17.25H13.125C13.332 17.25 13.5 17.418 13.5 17.625C13.5 17.832 13.332 18 13.125 18Z" fill="#111111"/>
<path d="M8.625 18H5.625C5.418 18 5.25 17.832 5.25 17.625C5.25 17.418 5.418 17.25 5.625 17.25H8.625C8.832 17.25 9 17.418 9 17.625C9 17.832 8.832 18 8.625 18Z" fill="#111111"/>
<path d="M18.375 23.25H7.875C7.668 23.25 7.5 23.082 7.5 22.875C7.5 22.668 7.668 22.5 7.875 22.5H18.375C18.582 22.5 18.75 22.668 18.75 22.875C18.75 23.082 18.582 23.25 18.375 23.25Z" fill="#111111"/>
<path d="M6 11.25C4.96575 11.25 4.125 10.4093 4.125 9.375C4.125 8.34075 4.96575 7.5 6 7.5C7.03425 7.5 7.875 8.34075 7.875 9.375C7.875 10.4093 7.03425 11.25 6 11.25ZM6 8.25C5.37975 8.25 4.875 8.75475 4.875 9.375C4.875 9.99525 5.37975 10.5 6 10.5C6.62025 10.5 7.125 9.99525 7.125 9.375C7.125 8.75475 6.62025 8.25 6 8.25Z" fill="#111111"/>
<path d="M5.99999 15.75C4.68449 15.75 3.42149 15.2542 2.44574 14.3527C2.34524 14.2605 2.30324 14.1202 2.33624 13.9875C2.62424 12.8175 3.66824 12 4.87499 12H7.12499C8.33174 12 9.37574 12.8175 9.66449 13.9868C9.69749 14.1203 9.65474 14.2597 9.55499 14.352C8.57849 15.2542 7.31549 15.75 5.99999 15.75ZM3.12974 13.9553C4.74974 15.306 7.25024 15.306 8.87024 13.9553C8.60024 13.2353 7.91099 12.75 7.12499 12.75H4.87499C4.08899 12.75 3.39974 13.2353 3.12974 13.9553Z" fill="#111111"/>
<path d="M6 15.75C3.10575 15.75 0.75 13.3942 0.75 10.5C0.75 7.60575 3.10575 5.25 6 5.25C8.89425 5.25 11.25 7.60575 11.25 10.5C11.25 13.3942 8.89425 15.75 6 15.75ZM6 6C3.51825 6 1.5 8.01825 1.5 10.5C1.5 12.9818 3.51825 15 6 15C8.48175 15 10.5 12.9818 10.5 10.5C10.5 8.01825 8.48175 6 6 6Z" fill="#111111"/>
<path d="M13.125 5.21255C12.918 5.21255 12.75 5.08205 12.75 4.87505V4.80005C12.75 4.59305 12.918 4.42505 13.125 4.42505C13.332 4.42505 13.5 4.59305 13.5 4.80005C13.5 5.00705 13.332 5.21255 13.125 5.21255Z" fill="#111111"/>
<path d="M13.125 6.71255C12.918 6.71255 12.75 6.58205 12.75 6.37505V6.30005C12.75 6.09305 12.918 5.92505 13.125 5.92505C13.332 5.92505 13.5 6.09305 13.5 6.30005C13.5 6.50705 13.332 6.71255 13.125 6.71255Z" fill="#111111"/>
<path d="M13.125 8.21255C12.918 8.21255 12.75 8.08205 12.75 7.87505V7.80005C12.75 7.59305 12.918 7.42505 13.125 7.42505C13.332 7.42505 13.5 7.59305 13.5 7.80005C13.5 8.00705 13.332 8.21255 13.125 8.21255Z" fill="#111111"/>
</svg>
