<svg width="16" height="16" viewBox="0 0 16 16" fill="none" xmlns="http://www.w3.org/2000/svg">
<g opacity="0.5">
<path d="M7.45318 13.0457C7.51434 13.1345 7.59618 13.2071 7.69164 13.2573C7.7871 13.3075 7.89333 13.3337 8.00118 13.3337C8.10903 13.3337 8.21525 13.3075 8.31072 13.2573C8.40618 13.2071 8.48802 13.1345 8.54918 13.0457L14.5492 4.37901C14.6186 4.27905 14.6594 4.16196 14.6669 4.04048C14.6745 3.91899 14.6487 3.79776 14.5922 3.68994C14.5357 3.58212 14.4507 3.49184 14.3465 3.42891C14.2423 3.36599 14.1229 3.33282 14.0012 3.33301H2.00118C1.87974 3.33351 1.76074 3.36711 1.65697 3.43018C1.55319 3.49326 1.46858 3.58343 1.41222 3.691C1.35587 3.79857 1.3299 3.91947 1.33712 4.0407C1.34433 4.16192 1.38446 4.27888 1.45318 4.37901L7.45318 13.0457Z" fill="#403B43"/>
</g>
</svg>
