<svg width="12" height="7" viewBox="0 0 12 7" fill="none" xmlns="http://www.w3.org/2000/svg">
<path d="M10.9978 0.325542L5.99983 5.19754L1.00183 0.325542C0.912538 0.238312 0.792662 0.189476 0.667832 0.189476C0.543002 0.189476 0.423126 0.238312 0.333832 0.325542C0.290594 0.367906 0.256244 0.418472 0.232794 0.474278C0.209344 0.530084 0.197266 0.590009 0.197266 0.650542C0.197266 0.711075 0.209344 0.770999 0.232794 0.826805C0.256244 0.882611 0.290594 0.933177 0.333832 0.975542L5.65083 6.15954C5.74421 6.25056 5.86944 6.30149 5.99983 6.30149C6.13022 6.30149 6.25546 6.25056 6.34883 6.15954L11.6658 0.976542C11.7094 0.934146 11.744 0.883456 11.7676 0.827465C11.7912 0.771473 11.8034 0.711316 11.8034 0.650542C11.8034 0.589768 11.7912 0.52961 11.7676 0.473619C11.744 0.417627 11.7094 0.366938 11.6658 0.324542C11.5765 0.237312 11.4567 0.188477 11.3318 0.188477C11.207 0.188477 11.0871 0.237312 10.9978 0.324542V0.325542Z" fill="#2F9089"/>
</svg>
