<svg width="20" height="21" viewBox="0 0 20 21" fill="none" xmlns="http://www.w3.org/2000/svg">
<path d="M18.3346 10.5741C18.3361 11.6717 18.1199 12.7587 17.6988 13.7723C17.2776 14.7859 16.6597 15.7061 15.8809 16.4795C15.1084 17.2506 14.1916 17.8619 13.1827 18.2785C12.1739 18.6951 11.0928 18.9088 10.0013 18.9074C5.39881 18.9074 1.66798 15.1766 1.66798 10.5741C1.66506 8.4373 2.48584 6.38163 3.95964 4.83448C4.73729 4.0139 5.67419 3.36062 6.71303 2.91464C7.75187 2.46865 8.87079 2.23934 10.0013 2.24073C11.0928 2.23932 12.1739 2.45301 13.1827 2.86961C14.1916 3.28621 15.1084 3.89753 15.8809 4.66865C16.6597 5.44207 17.2776 6.36218 17.6988 7.37579C18.1199 8.38941 18.3361 9.47643 18.3346 10.5741Z" stroke="#D22D90" stroke-width="1.5" stroke-linecap="round" stroke-linejoin="round"/>
<path d="M18.3351 10.5742C17.1192 10.5742 13.7651 10.1159 10.763 11.4338C7.50174 12.8659 5.14049 15.0875 4.11133 16.4688" stroke="#D22D90" stroke-width="1.5" stroke-linecap="round" stroke-linejoin="round"/>
<path d="M6.875 2.84668C8.17917 4.05043 11.025 7.11501 12.0833 10.1575C13.1417 13.2 13.5333 16.9408 13.775 18.0054" stroke="#D22D90" stroke-width="1.5" stroke-linecap="round" stroke-linejoin="round"/>
<path d="M1.73242 9.53252C3.30659 9.62752 7.47367 9.71294 10.1403 8.57419C12.807 7.43544 15.1016 5.34085 15.8887 4.67627M2.29326 13.7463C3.02755 15.5237 4.35188 16.9939 6.04326 17.9092" stroke="#D22D90" stroke-width="1.5" stroke-linecap="round" stroke-linejoin="round"/>
<path d="M1.66798 10.5741C1.66506 8.4373 2.48584 6.38163 3.95964 4.83448C4.73729 4.0139 5.67419 3.36062 6.71303 2.91464C7.75187 2.46865 8.87079 2.23934 10.0013 2.24073M13.3346 2.93406C14.2837 3.34929 15.1471 3.93749 15.8809 4.66865C16.6597 5.44207 17.2776 6.36218 17.6988 7.37579C18.1199 8.3894 18.3361 9.47643 18.3346 10.5741C18.3346 11.5999 18.1492 12.5828 17.8096 13.4907M10.0013 18.9074C11.0928 18.9088 12.1739 18.6951 13.1827 18.2785C14.1916 17.8619 15.1084 17.2506 15.8809 16.4795" stroke="#D22D90" stroke-width="1.5" stroke-linecap="round" stroke-linejoin="round"/>
</svg>
