<svg width="21" height="20" viewBox="0 0 21 20" fill="none" xmlns="http://www.w3.org/2000/svg">
<path d="M20.5016 10.2247C20.5016 9.56634 20.442 8.94134 20.3399 8.33301H10.7188V12.0913H16.2275C15.9806 13.3247 15.2569 14.3663 14.1841 15.0747V17.5747H17.4706C19.3948 15.833 20.5016 13.2663 20.5016 10.2247Z" fill="#4285F4"/>
<path d="M10.7164 19.9999C13.4751 19.9999 15.7824 19.0999 17.4682 17.5749L14.1817 15.0749C13.2622 15.6749 12.0957 16.0415 10.7164 16.0415C8.05147 16.0415 5.79519 14.2832 4.98633 11.9082H1.59766V14.4832C3.27497 17.7499 6.72324 19.9999 10.7164 19.9999Z" fill="#34A853"/>
<path d="M4.98702 11.9083C4.77416 11.3083 4.66347 10.6666 4.66347 9.99993C4.66347 9.33327 4.78267 8.6916 4.98702 8.0916V5.5166H1.59834C0.90017 6.8666 0.5 8.38327 0.5 9.99993C0.5 11.6166 0.90017 13.1333 1.59834 14.4833L4.98702 11.9083Z" fill="#FBBC05"/>
<path d="M10.7164 3.95833C12.2235 3.95833 13.5687 4.46667 14.633 5.45833L17.5449 2.60833C15.7824 0.991667 13.4751 0 10.7164 0C6.72324 0 3.27497 2.25 1.59766 5.51667L4.98633 8.09167C5.79519 5.71667 8.05147 3.95833 10.7164 3.95833Z" fill="#EA4335"/>
</svg>
