<svg width="21" height="21" viewBox="0 0 21 21" fill="none" xmlns="http://www.w3.org/2000/svg">
<g clip-path="url(#clip0_213_7671)">
<path d="M17.7152 0.911621H2.94961C1.69057 0.911621 0.669922 1.93227 0.669922 3.19131V17.9554C0.669922 19.2144 1.69057 20.2351 2.94961 20.2351H17.7152C18.9743 20.2351 19.9949 19.2144 19.9949 17.9554V3.19131C19.9949 1.93227 18.9743 0.911621 17.7152 0.911621Z" fill="url(#paint0_linear_213_7671)"/>
<path d="M8.55586 9.99277C8.55586 9.99277 10.1965 9.8709 10.1965 7.94746C10.1965 6.02402 8.8543 5.08496 7.1543 5.08496H1.56055V15.835H7.1543C7.1543 15.835 10.5684 15.9428 10.5684 12.6615C10.5684 12.6615 10.7184 9.99277 8.55586 9.99277ZM4.02461 6.9959H7.14961C7.14961 6.9959 7.91055 6.9959 7.91055 8.11465C7.91055 9.2334 7.46367 9.3959 6.95586 9.3959H4.02617L4.02461 6.9959ZM7.00898 13.924H4.02617V11.0521H7.15117C7.15117 11.0521 8.28398 11.0365 8.28398 12.5287C8.28711 13.7709 7.45898 13.9115 7.01055 13.924H7.00898ZM15.123 7.8209C10.9887 7.8209 10.9934 11.9506 10.9934 11.9506C10.9934 11.9506 10.709 16.06 15.123 16.06C15.123 16.06 18.8012 16.2693 18.8012 13.2021H16.9105C16.9105 13.2021 16.973 14.3584 15.1918 14.3584C15.1918 14.3584 13.2996 14.485 13.2996 12.4834H18.8699C18.8699 12.4834 19.4746 7.8209 15.123 7.8209ZM16.8043 11.0521H13.273C13.273 11.0521 13.5043 9.3959 15.1652 9.3959C16.8262 9.3959 16.8043 11.0521 16.8043 11.0521ZM12.8105 5.71934H17.2449V7.04277H12.8105V5.71934Z" fill="white"/>
</g>
<defs>
<linearGradient id="paint0_linear_213_7671" x1="10.3324" y1="0.911621" x2="10.3324" y2="20.2366" gradientUnits="userSpaceOnUse">
<stop stop-color="#005CFF"/>
<stop offset="1" stop-color="#0047AD"/>
</linearGradient>
<clipPath id="clip0_213_7671">
<rect width="20" height="20" fill="white" transform="translate(0.332031 0.574219)"/>
</clipPath>
</defs>
</svg>
