<svg width="21" height="21" viewBox="0 0 21 21" fill="none" xmlns="http://www.w3.org/2000/svg">
<g clip-path="url(#clip0_213_7653)">
<path d="M15.6445 0.574219H5.01953C2.4307 0.574219 0.332031 2.67288 0.332031 5.26172V15.8867C0.332031 18.4756 2.4307 20.5742 5.01953 20.5742H15.6445C18.2334 20.5742 20.332 18.4756 20.332 15.8867V5.26172C20.332 2.67288 18.2334 0.574219 15.6445 0.574219Z" fill="url(#paint0_radial_213_7653)"/>
<path d="M15.6445 0.574219H5.01953C2.4307 0.574219 0.332031 2.67288 0.332031 5.26172V15.8867C0.332031 18.4756 2.4307 20.5742 5.01953 20.5742H15.6445C18.2334 20.5742 20.332 18.4756 20.332 15.8867V5.26172C20.332 2.67288 18.2334 0.574219 15.6445 0.574219Z" fill="url(#paint1_radial_213_7653)"/>
<path d="M10.3327 2.76172C8.21102 2.76172 7.94469 2.77102 7.11141 2.80891C6.27969 2.84703 5.71195 2.97867 5.21523 3.17188C4.70133 3.37141 4.26547 3.63836 3.83125 4.07273C3.39664 4.50703 3.12969 4.94289 2.92953 5.45656C2.73578 5.95344 2.60398 6.52141 2.56656 7.35273C2.5293 8.18609 2.51953 8.4525 2.51953 10.5743C2.51953 12.6961 2.52891 12.9616 2.56672 13.7948C2.605 14.6266 2.73664 15.1943 2.92969 15.691C3.12937 16.2049 3.39633 16.6408 3.8307 17.075C4.26484 17.5096 4.7007 17.7772 5.21422 17.9767C5.71133 18.1699 6.27914 18.3016 7.1107 18.3397C7.94406 18.3776 8.21016 18.3869 10.3318 18.3869C12.4537 18.3869 12.7192 18.3776 13.5525 18.3397C14.3842 18.3016 14.9526 18.1699 15.4497 17.9767C15.9634 17.7772 16.3986 17.5096 16.8327 17.075C17.2673 16.6408 17.5341 16.2049 17.7344 15.6912C17.9264 15.1943 18.0583 14.6264 18.0973 13.795C18.1348 12.9617 18.1445 12.6961 18.1445 10.5743C18.1445 8.4525 18.1348 8.18625 18.0973 7.35289C18.0583 6.52117 17.9264 5.95352 17.7344 5.4568C17.5341 4.94289 17.2673 4.50703 16.8327 4.07273C16.3981 3.6382 15.9635 3.37125 15.4492 3.17195C14.9512 2.97867 14.3831 2.84695 13.5514 2.80891C12.718 2.77102 12.4527 2.76172 10.3303 2.76172H10.3327ZM9.63188 4.16961C9.83992 4.1693 10.072 4.16961 10.3327 4.16961C12.4187 4.16961 12.6659 4.17711 13.4897 4.21453C14.2514 4.24938 14.6648 4.37664 14.9402 4.48359C15.3048 4.62516 15.5648 4.79445 15.838 5.06797C16.1115 5.34141 16.2807 5.6018 16.4227 5.96641C16.5296 6.24141 16.657 6.65484 16.6917 7.41656C16.7291 8.24016 16.7373 8.4875 16.7373 10.5725C16.7373 12.6575 16.7291 12.9049 16.6917 13.7284C16.6569 14.4902 16.5296 14.9036 16.4227 15.1787C16.2811 15.5433 16.1115 15.8029 15.838 16.0762C15.5646 16.3496 15.305 16.5188 14.9402 16.6605C14.6652 16.7679 14.2514 16.8948 13.4897 16.9297C12.6661 16.9671 12.4187 16.9752 10.3327 16.9752C8.24664 16.9752 7.99937 16.9671 7.17586 16.9297C6.41414 16.8945 6.0007 16.7673 5.72508 16.6603C5.36055 16.5187 5.10008 16.3495 4.82664 16.076C4.5532 15.8026 4.38398 15.5428 4.24203 15.178C4.13508 14.903 4.00766 14.4895 3.97297 13.7278C3.93555 12.9042 3.92805 12.6569 3.92805 10.5705C3.92805 8.4843 3.93555 8.2382 3.97297 7.41461C4.00781 6.65289 4.13508 6.23945 4.24203 5.96406C4.38367 5.59945 4.5532 5.33906 4.82672 5.06563C5.10016 4.79219 5.36055 4.62289 5.72516 4.48102C6.00055 4.37359 6.41414 4.24664 7.17586 4.21164C7.89656 4.17906 8.17586 4.1693 9.63188 4.16766V4.16961ZM14.503 5.4668C13.9855 5.4668 13.5655 5.88633 13.5655 6.40398C13.5655 6.92156 13.9855 7.34148 14.503 7.34148C15.0206 7.34148 15.4405 6.92156 15.4405 6.40398C15.4405 5.88641 15.0206 5.46648 14.503 5.46648V5.4668ZM10.3327 6.56219C8.11711 6.56219 6.3207 8.35859 6.3207 10.5743C6.3207 12.79 8.11711 14.5855 10.3327 14.5855C12.5484 14.5855 14.3442 12.79 14.3442 10.5743C14.3442 8.35867 12.5483 6.56219 10.3326 6.56219H10.3327ZM10.3327 7.97008C11.7709 7.97008 12.937 9.13594 12.937 10.5743C12.937 12.0125 11.7709 13.1785 10.3327 13.1785C8.89445 13.1785 7.72859 12.0125 7.72859 10.5743C7.72859 9.13594 8.89445 7.97008 10.3327 7.97008Z" fill="white"/>
</g>
<defs>
<radialGradient id="paint0_radial_213_7653" cx="0" cy="0" r="1" gradientUnits="userSpaceOnUse" gradientTransform="translate(5.64453 22.1146) rotate(-90) scale(19.8215 18.4355)">
<stop stop-color="#FFDD55"/>
<stop offset="0.1" stop-color="#FFDD55"/>
<stop offset="0.5" stop-color="#FF543E"/>
<stop offset="1" stop-color="#C837AB"/>
</radialGradient>
<radialGradient id="paint1_radial_213_7653" cx="0" cy="0" r="1" gradientUnits="userSpaceOnUse" gradientTransform="translate(-3.01805 2.01492) rotate(78.681) scale(8.86031 36.5225)">
<stop stop-color="#3771C8"/>
<stop offset="0.128" stop-color="#3771C8"/>
<stop offset="1" stop-color="#6600FF" stop-opacity="0"/>
</radialGradient>
<clipPath id="clip0_213_7653">
<rect width="20" height="20" fill="white" transform="translate(0.332031 0.574219)"/>
</clipPath>
</defs>
</svg>
