<svg width="21" height="21" viewBox="0 0 21 21" fill="none" xmlns="http://www.w3.org/2000/svg">
<g clip-path="url(#clip0_213_7639)">
<path d="M15.9785 0.574219H5.35352C2.76468 0.574219 0.666016 2.67288 0.666016 5.26172V15.8867C0.666016 18.4756 2.76468 20.5742 5.35352 20.5742H15.9785C18.5674 20.5742 20.666 18.4756 20.666 15.8867V5.26172C20.666 2.67288 18.5674 0.574219 15.9785 0.574219Z" fill="white"/>
<path d="M15.9785 0.574219H5.35352C2.76468 0.574219 0.666016 2.67288 0.666016 5.26172V15.8867C0.666016 18.4756 2.76468 20.5742 5.35352 20.5742H15.9785C18.5674 20.5742 20.666 18.4756 20.666 15.8867V5.26172C20.666 2.67288 18.5674 0.574219 15.9785 0.574219Z" fill="#0A66C2"/>
<path d="M15.0969 17.5809H17.3836C17.4665 17.5809 17.5459 17.5479 17.6045 17.4894C17.6631 17.4308 17.6961 17.3513 17.6961 17.2684L17.6973 12.437C17.6973 9.9118 17.1531 7.97078 14.2021 7.97078C13.0803 7.92906 12.0224 8.50734 11.4516 9.47297C11.4488 9.47766 11.4445 9.48131 11.4395 9.48336C11.4344 9.48541 11.4288 9.48574 11.4235 9.48432C11.4183 9.48289 11.4136 9.47978 11.4103 9.47546C11.407 9.47114 11.4051 9.46585 11.4051 9.46039V8.51641C11.4051 8.43353 11.3722 8.35404 11.3135 8.29544C11.2549 8.23683 11.1755 8.20391 11.0926 8.20391H8.9225C8.83962 8.20391 8.76013 8.23683 8.70153 8.29544C8.64292 8.35404 8.61 8.43353 8.61 8.51641V17.268C8.61 17.3508 8.64292 17.4303 8.70153 17.4889C8.76013 17.5475 8.83962 17.5805 8.9225 17.5805H11.2091C11.2919 17.5805 11.3714 17.5475 11.43 17.4889C11.4886 17.4303 11.5216 17.3508 11.5216 17.268V12.942C11.5216 11.7188 11.7536 10.5341 13.2701 10.5341C14.765 10.5341 14.7844 11.9338 14.7844 13.0212V17.2684C14.7844 17.3512 14.8173 17.4307 14.8759 17.4893C14.9345 17.5479 15.014 17.5809 15.0969 17.5809ZM3.63477 5.23266C3.63477 6.15953 4.39781 6.92219 5.32477 6.92219C6.25148 6.92211 7.01406 6.15898 7.01406 5.23227C7.01391 4.30555 6.25125 3.54297 5.32445 3.54297C4.39742 3.54297 3.63477 4.30578 3.63477 5.23266ZM4.17844 17.5809H6.46805C6.55093 17.5809 6.63041 17.5479 6.68902 17.4893C6.74762 17.4307 6.78055 17.3512 6.78055 17.2684V8.51641C6.78055 8.43353 6.74762 8.35404 6.68902 8.29544C6.63041 8.23683 6.55093 8.20391 6.46805 8.20391H4.17844C4.09556 8.20391 4.01607 8.23683 3.95747 8.29544C3.89886 8.35404 3.86594 8.43353 3.86594 8.51641V17.2684C3.86594 17.3512 3.89886 17.4307 3.95747 17.4893C4.01607 17.5479 4.09556 17.5809 4.17844 17.5809Z" fill="white"/>
</g>
<defs>
<clipPath id="clip0_213_7639">
<rect width="20" height="20" fill="white" transform="translate(0.666016 0.574219)"/>
</clipPath>
</defs>
</svg>
