<svg width="21" height="21" viewBox="0 0 21 21" fill="none" xmlns="http://www.w3.org/2000/svg">
<g clip-path="url(#clip0_213_7659)">
<path d="M20.666 10.5742C20.666 5.05141 16.1888 0.574219 10.666 0.574219C5.1432 0.574219 0.666016 5.05141 0.666016 10.5742C0.666016 15.5655 4.32289 19.7026 9.10352 20.4527V13.4648H6.56445V10.5742H9.10352V8.37109C9.10352 5.86484 10.5965 4.48047 12.8807 4.48047C13.9748 4.48047 15.1191 4.67578 15.1191 4.67578V7.13672H13.8582C12.6159 7.13672 12.2285 7.90758 12.2285 8.69844V10.5742H15.002L14.5586 13.4648H12.2285V20.4527C17.0091 19.7026 20.666 15.5655 20.666 10.5742Z" fill="#1877F2"/>
<path d="M14.5586 13.4648L15.002 10.5742H12.2285V8.69844C12.2285 7.9075 12.6159 7.13672 13.8582 7.13672H15.1191V4.67578C15.1191 4.67578 13.9748 4.48047 12.8806 4.48047C10.5965 4.48047 9.10352 5.86484 9.10352 8.37109V10.5742H6.56445V13.4648H9.10352V20.4527C9.6204 20.5337 10.1428 20.5744 10.666 20.5742C11.1892 20.5744 11.7116 20.5338 12.2285 20.4527V13.4648H14.5586Z" fill="white"/>
</g>
<defs>
<clipPath id="clip0_213_7659">
<rect width="20" height="20" fill="white" transform="translate(0.666016 0.574219)"/>
</clipPath>
</defs>
</svg>
