<svg width="20" height="20" viewBox="0 0 20 20" fill="none" xmlns="http://www.w3.org/2000/svg">
<circle cx="10" cy="10" r="5" fill="white"/>
<path d="M7.16927 18.75L5.58594 16.0833L2.58594 15.4167L2.8776 12.3333L0.835938 10L2.8776 7.66667L2.58594 4.58333L5.58594 3.91667L7.16927 1.25L10.0026 2.45833L12.8359 1.25L14.4193 3.91667L17.4193 4.58333L17.1276 7.66667L19.1693 10L17.1276 12.3333L17.4193 15.4167L14.4193 16.0833L12.8359 18.75L10.0026 17.5417L7.16927 18.75ZM9.12761 12.9583L13.8359 8.25L12.6693 7.04167L9.12761 10.5833L7.33594 8.83333L6.16927 10L9.12761 12.9583Z" fill="#2F9089"/>
</svg>
