<svg width="80" height="80" viewBox="0 0 80 80" fill="none" xmlns="http://www.w3.org/2000/svg">
<circle cx="40" cy="40" r="40" fill="white"/>
<g clip-path="url(#clip0_2168_5219)">
<path d="M46.9927 56H44.5067V55H46.4927V52H42.9927C42.7166 52 42.4927 51.7761 42.4927 51.5V45.5H43.4927V51H46.9927C47.2688 51 47.4927 51.2239 47.4927 51.5V55.5C47.4927 55.7761 47.2688 56 46.9927 56Z" fill="#2F9089"/>
<path d="M43.5067 56H32.9927C32.7166 56 32.4927 55.7761 32.4927 55.5V51.5C32.4927 51.2239 32.7166 51 32.9927 51H36.4927V45.5H37.4927V51.5C37.4927 51.7761 37.2688 52 36.9927 52H33.4927V55H43.5067V56Z" fill="#2F9089"/>
<path d="M37.4927 37.5H36.4927V35.5H32.4927C32.3113 35.5 32.1441 35.4018 32.0559 35.2433C31.9676 35.0849 31.9721 34.8911 32.0676 34.7368L36.0914 28.2368L36.9416 28.7632L33.3902 34.5H36.9927C37.2688 34.5 37.4927 34.7239 37.4927 35V37.5Z" fill="#2F9089"/>
<path d="M43.4927 37.5H42.4927V25H39.2713L37.5607 27.7632L36.7104 27.2368L38.5676 24.2368C38.6587 24.0896 38.8195 24 38.9927 24H42.9927C43.2688 24 43.4927 24.2239 43.4927 24.5V37.5Z" fill="#2F9089"/>
<path d="M55.7387 46.6457C54.3986 45.8892 52.9947 45.2253 51.5599 44.6695L52.7737 41.3824C52.8693 41.1234 52.7369 40.8359 52.4779 40.7402C46.0486 38.3654 39.1062 37.8746 32.4015 39.3206L32.6123 40.2981C38.9679 38.9273 45.5429 39.3467 51.6612 41.5084L50.2753 45.2612C43.629 42.9276 36.3706 42.9276 29.7243 45.2612L28.3385 41.5084C29.4155 41.1282 30.5192 40.7982 31.6263 40.5257L31.3873 39.5546C30.0822 39.8759 28.7816 40.2747 27.5217 40.7402C27.2627 40.8358 27.1303 41.1234 27.226 41.3824L28.4398 44.6694C27.0052 45.2252 25.6013 45.889 24.261 46.6456C24.0954 46.7391 23.9972 46.9185 24.0076 47.1084C24.018 47.2983 24.1353 47.4659 24.3102 47.5407C25.1263 47.8899 25.9297 48.2771 26.7035 48.6941C26.5147 49.4316 26.3545 50.1766 26.2261 50.9141C26.193 51.1045 26.2725 51.2969 26.4304 51.4084C26.5165 51.4691 26.6174 51.4999 26.7187 51.4999C26.8032 51.4999 26.888 51.4785 26.9645 51.4353C29.2687 50.1346 31.7462 49.1886 34.3281 48.6237C34.4971 48.5867 34.6688 48.5509 34.8383 48.5172C35.0544 48.4744 35.217 48.2952 35.2386 48.0761C35.3454 46.9964 35.4908 45.9042 35.6713 44.8241C38.5413 44.4064 41.4583 44.4064 44.3282 44.8241C44.5088 45.9043 44.6542 46.9965 44.761 48.0759C44.7827 48.2951 44.9452 48.4743 45.1612 48.5172H45.1613V48.5172C45.2276 48.5304 45.2939 48.5438 45.3602 48.5575L45.3614 48.5577C46.7094 48.8359 48.0438 49.2218 49.3308 49.7057L49.6828 48.7696C48.8467 48.4553 47.9913 48.1808 47.1253 47.9486C48.2723 47.3388 49.4827 46.8102 50.7375 46.3715V46.3714C50.7525 46.3662 50.7672 46.3603 50.7817 46.3536C50.9022 46.2981 50.9957 46.1971 51.0416 46.0727L51.2133 45.6075C52.2869 46.0241 53.3427 46.503 54.3658 47.0376C53.7193 47.3399 53.0847 47.6641 52.4699 48.0062C52.2692 48.1178 52.1704 48.3518 52.2303 48.5736C52.3634 49.0657 52.4835 49.5625 52.5893 50.0589C51.9707 49.7406 51.3387 49.445 50.7013 49.1758L50.3123 50.0974C51.2407 50.4893 52.1567 50.9396 53.0352 51.4354C53.1117 51.4786 53.1964 51.5 53.2809 51.5C53.3822 51.5 53.4832 51.4692 53.5693 51.4085C53.7271 51.2971 53.8067 51.1046 53.7736 50.9142C53.6452 50.1769 53.485 49.4318 53.2961 48.6942C54.0699 48.2772 54.8733 47.8901 55.6895 47.5409C55.8644 47.4661 55.9817 47.2984 55.9921 47.1086C56.0025 46.9186 55.9043 46.7392 55.7387 46.6457ZM27.4103 50.059C27.5162 49.5626 27.6362 49.0658 27.7693 48.5738C27.8292 48.3521 27.7304 48.1181 27.5297 48.0064C26.915 47.6644 26.2802 47.3401 25.6338 47.0378C26.657 46.5032 27.7127 46.0243 28.7863 45.6077L28.958 46.0729C29.004 46.1972 29.0975 46.2983 29.2179 46.3538C29.2333 46.3609 29.2491 46.3672 29.2651 46.3727C30.5188 46.8111 31.7281 47.3394 32.8739 47.9486C30.9829 48.4553 29.1529 49.1621 27.4103 50.059ZM34.2833 47.5909C33.211 46.9616 32.0778 46.403 30.8997 45.9224C32.1265 45.5322 33.3727 45.2229 34.6303 44.9945C34.4919 45.8579 34.3757 46.7274 34.2833 47.5909ZM49.1 45.9224C47.9218 46.4029 46.7887 46.9615 45.7163 47.5909C45.624 46.7274 45.5078 45.858 45.3695 44.9945C46.627 45.2229 47.8732 45.5322 49.1 45.9224Z" fill="#2F9089"/>
<path d="M27.9927 31C27.8099 31 27.6417 30.9002 27.554 30.7399L26.7404 29.2523L25.2527 28.4387C25.0924 28.351 24.9927 28.1827 24.9927 28C24.9927 27.8173 25.0924 27.649 25.2527 27.5613L26.7404 26.7477L27.5541 25.2601C27.6417 25.0997 27.8099 25 27.9927 25C28.1754 25 28.3437 25.0997 28.4314 25.2601L29.245 26.7477L30.7326 27.5613C30.8929 27.649 30.9927 27.8173 30.9927 28C30.9927 28.1827 30.8929 28.351 30.7326 28.4387L29.245 29.2523L28.4314 30.7399C28.3437 30.9002 28.1754 31 27.9927 31ZM26.5347 28L27.3487 28.4452C27.4326 28.4911 27.5016 28.5601 27.5474 28.6439L27.9927 29.458L28.4379 28.6439C28.4837 28.5601 28.5527 28.4911 28.6366 28.4452L29.4507 28L28.6367 27.5548C28.5528 27.5089 28.4838 27.4399 28.4379 27.3561L27.9927 26.542L27.5475 27.3561C27.5016 27.4399 27.4327 27.5089 27.3487 27.5548L26.5347 28Z" fill="#2F9089"/>
<path d="M51.9927 39.0108C51.81 39.0108 51.6418 38.911 51.5541 38.7507L50.7404 37.2631L49.2527 36.4494C49.0924 36.3617 48.9927 36.1935 48.9927 36.0107C48.9927 35.8279 49.0924 35.6597 49.2527 35.572L50.7404 34.7584L51.5541 33.2708C51.6417 33.1104 51.81 33.0107 51.9927 33.0107C52.1756 33.0107 52.3437 33.1104 52.4314 33.2708L53.2451 34.7584L54.7327 35.5721C54.8931 35.6598 54.9928 35.828 54.9928 36.0108C54.9928 36.1935 54.8931 36.3618 54.7327 36.4494L53.2451 37.2631L52.4314 38.7507C52.3437 38.911 52.1756 39.0108 51.9927 39.0108ZM50.5347 36.0108L51.3487 36.456C51.4326 36.5019 51.5016 36.5708 51.5475 36.6548L51.9927 37.4688L52.4379 36.6548C52.4837 36.5709 52.5528 36.5019 52.6367 36.456L53.4507 36.0108L52.6367 35.5656C52.5528 35.5197 52.4838 35.4507 52.4379 35.3668L51.9927 34.5528L51.5475 35.3668C51.5016 35.4506 51.4326 35.5196 51.3487 35.5655L50.5347 36.0108Z" fill="#2F9089"/>
</g>
<defs>
<clipPath id="clip0_2168_5219">
<rect width="32" height="32" fill="white" transform="translate(24 24)"/>
</clipPath>
</defs>
</svg>
