<svg aria-hidden="true" style="position: absolute; width: 0; height: 0; overflow: hidden;" version="1.1" xmlns="http://www.w3.org/2000/svg" xmlns:xlink="http://www.w3.org/1999/xlink">
<defs>


<symbol id="desktop" viewBox="0 0 28 28">
    <path d="M25.6667 3.5H2.33337V21H8.16671L7.00004 22.1667V24.5H21V22.1667L19.8334 21H25.6667V3.5ZM23.3334 18.6667H4.66671V5.83333H23.3334V18.6667Z" fill=""/>
</symbol>

<symbol id="book" viewBox="0 0 28 28">
    
    <path fill-rule="evenodd" clip-rule="evenodd" d="M24.2087 19.4997C24.2072 19.5556 24.2018 19.6114 24.1923 19.6665C24.2169 19.7932 24.2132 19.9237 24.1814 20.0487C24.1497 20.1738 24.0907 20.2903 24.0086 20.3898C23.9265 20.4894 23.8235 20.5696 23.7068 20.6247C23.5901 20.6797 23.4627 20.7083 23.3337 20.7083H7.00033C6.80881 20.7083 6.61918 20.7461 6.44225 20.8193C6.26531 20.8926 6.10455 21 5.96913 21.1355C5.83371 21.2709 5.72629 21.4317 5.653 21.6086C5.57971 21.7855 5.54199 21.9752 5.54199 22.1667C5.54199 22.3582 5.57971 22.5478 5.653 22.7247C5.72629 22.9017 5.83371 23.0624 5.96913 23.1979C6.10455 23.3333 6.26531 23.4407 6.44225 23.514C6.61918 23.5873 6.80881 23.625 7.00033 23.625H23.3337C23.5657 23.625 23.7883 23.7172 23.9524 23.8813C24.1165 24.0454 24.2087 24.2679 24.2087 24.5C24.2087 24.7321 24.1165 24.9546 23.9524 25.1187C23.7883 25.2828 23.5657 25.375 23.3337 25.375H7.00033C6.14942 25.375 5.33337 25.037 4.73169 24.4353C4.13001 23.8336 3.79199 23.0176 3.79199 22.1667V5.83333C3.79199 4.98243 4.13001 4.16638 4.73169 3.5647C5.33337 2.96302 6.14942 2.625 7.00033 2.625H22.6337C23.504 2.625 24.2087 3.32967 24.2087 4.2V19.4997ZM10.5003 7.29167C10.2683 7.29167 10.0457 7.38385 9.88161 7.54795C9.71751 7.71204 9.62533 7.9346 9.62533 8.16667C9.62533 8.39873 9.71751 8.62129 9.88161 8.78539C10.0457 8.94948 10.2683 9.04167 10.5003 9.04167H17.5003C17.7324 9.04167 17.9549 8.94948 18.119 8.78539C18.2831 8.62129 18.3753 8.39873 18.3753 8.16667C18.3753 7.9346 18.2831 7.71204 18.119 7.54795C17.9549 7.38385 17.7324 7.29167 17.5003 7.29167H10.5003Z" fill="" />

</symbol>

</defs>
</svg>
